<svg width="16" height="16" viewBox="0 0 16 16" fill="none" xmlns="http://www.w3.org/2000/svg">
<path d="M7.99999 4V6L10.6667 3.33334L7.99999 0.666672V2.66667C5.05332 2.66667 2.66666 5.05334 2.66666 8C2.66666 9.04667 2.97332 10.02 3.49332 10.84L4.46666 9.86667C4.16666 9.31334 3.99999 8.67334 3.99999 8C3.99999 5.79334 5.79332 4 7.99999 4ZM12.5067 5.16L11.5333 6.13334C11.8267 6.69334 12 7.32667 12 8C12 10.2067 10.2067 12 7.99999 12V10L5.33332 12.6667L7.99999 15.3333V13.3333C10.9467 13.3333 13.3333 10.9467 13.3333 8C13.3333 6.95334 13.0267 5.98 12.5067 5.16Z" fill="#050B0F"/>
</svg>
