<svg width="36" height="36" viewBox="0 0 36 36" fill="none" xmlns="http://www.w3.org/2000/svg">
<g clip-path="url(#clip0_142_3776)">
<path d="M32.9574 7.19019H3.0426C1.36876 7.19019 0 8.55894 0 10.2328V24.9016C0 25.2397 0.280348 25.52 0.618415 25.52H2.28401C2.6798 27.4 4.3454 28.8182 6.34082 28.8182C8.33624 28.8182 10.0018 27.4 10.3976 25.52H23.7636C24.1594 27.4 25.825 28.8182 27.8204 28.8182C29.8159 28.8182 31.4815 27.4 31.8773 25.52H35.3899C35.7279 25.52 36.0083 25.2397 36.0083 24.9016V10.2328C36 8.55894 34.6395 7.19019 32.9574 7.19019Z" fill="#E6FFFD"/>
<path d="M6.34092 22.6011C5.20304 22.6011 4.27954 23.5246 4.27954 24.6625C4.27954 25.8003 5.20304 26.7238 6.34092 26.7238C7.47881 26.7238 8.40231 25.8003 8.40231 24.6625C8.40231 23.5246 7.47881 22.6011 6.34092 22.6011ZM6.34092 25.4953C5.88742 25.4953 5.51637 25.1242 5.51637 24.6707C5.51637 24.2172 5.88742 23.8462 6.34092 23.8462C6.79443 23.8462 7.16548 24.2172 7.16548 24.6707C7.16548 25.1242 6.79443 25.4953 6.34092 25.4953Z" fill="#004267"/>
<path d="M27.8207 22.6011C26.6828 22.6011 25.7593 23.5246 25.7593 24.6625C25.7593 25.8003 26.6828 26.7238 27.8207 26.7238C28.9585 26.7238 29.882 25.8003 29.882 24.6625C29.882 23.5246 28.9585 22.6011 27.8207 22.6011ZM27.8207 25.4953C27.3672 25.4953 26.9961 25.1242 26.9961 24.6707C26.9961 24.2172 27.3672 23.8462 27.8207 23.8462C28.2742 23.8462 28.6452 24.2172 28.6452 24.6707C28.6452 25.1242 28.2742 25.4953 27.8207 25.4953Z" fill="#004267"/>
<path d="M32.9574 7.19019H3.0426C1.36876 7.19019 0 8.55894 0 10.2328V24.9016C0 25.2397 0.280348 25.52 0.618415 25.52H2.28401C2.6798 27.4 4.3454 28.8182 6.34082 28.8182C8.33624 28.8182 10.0018 27.4 10.3976 25.52H23.7636C24.1594 27.4 25.825 28.8182 27.8204 28.8182C29.8159 28.8182 31.4815 27.4 31.8773 25.52H35.3899C35.7279 25.52 36.0083 25.2397 36.0083 24.9016V10.2328C36 8.55894 34.6395 7.19019 32.9574 7.19019ZM34.7632 18.1403H31.4238C31.0362 18.1403 30.7229 17.8269 30.7229 17.4394V11.5521C30.7229 11.1645 31.0362 10.8512 31.4238 10.8512H34.7632V18.1403ZM1.23683 23.6318H2.33349C2.27577 23.8462 2.24279 24.0605 2.21805 24.2832H1.23683V23.6318ZM6.34082 27.5731C4.74119 27.5731 3.43014 26.2703 3.43014 24.6625C3.43014 23.0546 4.73294 21.7518 6.34082 21.7518C7.9487 21.7518 9.2515 23.0546 9.2515 24.6625C9.2515 26.2703 7.94045 27.5731 6.34082 27.5731ZM27.8204 27.5731C26.2208 27.5731 24.9098 26.2703 24.9098 24.6625C24.9098 23.0546 26.2126 21.7518 27.8204 21.7518C29.4283 21.7518 30.7311 23.0546 30.7311 24.6625C30.7311 26.2703 29.4201 27.5731 27.8204 27.5731ZM27.8204 20.5232C26.3775 20.5232 25.0994 21.2653 24.3573 22.3867H12.7476C12.4095 22.3867 12.1292 22.6671 12.1292 23.0051C12.1292 23.3432 12.4095 23.6235 12.7476 23.6235H23.8049C23.7472 23.8379 23.7142 24.0523 23.6894 24.2749H10.4636C10.2657 22.1723 8.49291 20.5232 6.34082 20.5232C4.89785 20.5232 3.61979 21.2653 2.87769 22.3867H1.23683V10.2328C1.23683 9.23508 2.04489 8.42702 3.0426 8.42702H32.9574C33.7407 8.42702 34.4004 8.92175 34.656 9.61437H31.4238C30.3601 9.61437 29.486 10.4802 29.486 11.5521V17.4394C29.486 18.5031 30.3518 19.3771 31.4238 19.3771H34.7632V20.1192H33.7325C33.3944 20.1192 33.1141 20.3995 33.1141 20.7376C33.1141 21.0757 33.3944 21.356 33.7325 21.356H34.7632V22.3949H31.2753C30.5332 21.2653 29.2634 20.5232 27.8204 20.5232ZM31.9432 24.2832C31.9185 24.0605 31.8855 23.8462 31.8278 23.6318H34.7632V24.2832H31.9432Z" fill="#004267"/>
<path d="M26.8146 9.6145H4.57637C3.5127 9.6145 2.63867 10.4803 2.63867 11.5522V17.4395C2.63867 18.5032 3.50445 19.3772 4.57637 19.3772H26.8146C27.8783 19.3772 28.7523 18.5114 28.7523 17.4395V11.5522C28.744 10.4803 27.8783 9.6145 26.8146 9.6145ZM19.4266 10.8513V18.1404H12.253V10.8513H19.4266ZM3.8755 17.4395V11.5522C3.8755 11.1647 4.18883 10.8513 4.57637 10.8513H11.0161V18.1404H4.57637C4.18883 18.1404 3.8755 17.8271 3.8755 17.4395ZM27.5072 17.4395C27.5072 17.8271 27.1939 18.1404 26.8063 18.1404H20.6634V10.8596H26.8063C27.1939 10.8596 27.5072 11.1729 27.5072 11.5604V17.4395Z" fill="#004267"/>
<path d="M11.5356 22.4939C11.3047 22.3373 10.9913 22.362 10.7852 22.5434C10.5956 22.7083 10.5296 22.9804 10.6121 23.2196C10.7028 23.4669 10.9584 23.6401 11.2222 23.6236C11.4778 23.6071 11.7087 23.4339 11.7829 23.1866C11.8654 22.931 11.7582 22.6424 11.5356 22.4939C11.5026 22.4775 11.5685 22.5187 11.5356 22.4939Z" fill="#004267"/>
</g>
<defs>
<clipPath id="clip0_142_3776">
<rect width="36" height="36" fill="white"/>
</clipPath>
</defs>
</svg>
