<svg width="158" height="24" viewBox="0 0 158 24" fill="none" xmlns="http://www.w3.org/2000/svg">
<g clip-path="url(#clip0_210_87)">
<path d="M5.63453 6.67105H0L1.12691 2.48684H17.4088L16.2818 6.71053H10.6473L6.17855 23.6053H1.16576L5.63453 6.67105Z" fill="white"/>
<path d="M13.1343 19.1053C14.028 15.7105 17.1367 13.8553 23.5484 13.1842C23.7816 11.8816 23.3153 11.0921 21.6832 11.0921C20.4397 11.0921 18.9631 11.6053 17.1367 12.5132L16.2818 9.19737C18.73 7.93421 21.2169 7.06579 23.7039 7.06579C27.8229 7.06579 29.5327 9.39474 28.1726 14.4474L25.7634 23.6447H21.7221L21.7998 22.0263H21.6832C20.0511 23.2105 18.3414 24.0395 16.5927 24.0395C13.6394 24 12.4348 21.7895 13.1343 19.1053ZM22.0718 18.8289L22.7713 16.2237C19.546 16.6579 18.3025 17.5658 17.9916 18.7105C17.7585 19.6579 18.3025 20.0921 19.3128 20.0921C20.3232 20.0921 21.1392 19.6184 22.0718 18.8289Z" fill="white"/>
<path d="M34.7786 2.60526C35.1672 1.06579 36.6439 0 38.3148 0C39.9469 0 40.8406 1.06579 40.452 2.60526C40.0634 4.10526 38.5868 5.21053 36.9547 5.21053C35.2838 5.21053 34.3901 4.10526 34.7786 2.60526ZM33.8849 7.46053H38.82L34.5455 23.6447H29.6104L33.8849 7.46053Z" fill="white"/>
<path d="M41.6178 7.46053H46.5529L46.0866 14.7237C45.9311 16.3026 45.6591 17.9211 45.4648 19.5395H45.6203C46.3197 17.9211 47.0192 16.2632 47.8352 14.7237L51.3714 7.46053H55.6847L55.4904 14.7237C55.4516 16.3026 55.2961 17.9211 55.1795 19.5395H55.335C55.9956 17.9211 56.5785 16.3026 57.3168 14.7237L60.5809 7.46053H65.2051L57.2002 23.6447H51.3714L51.6434 17.4868C51.7211 15.9868 51.8765 14.4868 52.0708 12.75H51.9154C51.2159 14.5263 50.5942 15.9868 49.8947 17.4868L46.9803 23.6447H41.3069L41.6178 7.46053Z" fill="white"/>
<path d="M63.845 19.1053C64.7388 15.7105 67.8475 13.8553 74.2592 13.1842C74.4924 11.8816 74.0261 11.0921 72.394 11.0921C71.1505 11.0921 69.6739 11.6053 67.8475 12.5132L66.9926 9.19737C69.4407 7.93421 71.9277 7.06579 74.4147 7.06579C78.5337 7.06579 80.2435 9.39474 78.8834 14.4474L76.4742 23.6447H72.4328L72.5106 22.0263H72.394C70.7619 23.2105 69.0521 24.0395 67.3035 24.0395C64.3502 24 63.1456 21.7895 63.845 19.1053ZM72.7437 18.8289L73.4432 16.2237C70.2179 16.6579 68.9744 17.5658 68.6635 18.7105C68.4304 19.6579 68.9744 20.0921 69.9847 20.0921C71.0339 20.0921 71.8111 19.6184 72.7437 18.8289Z" fill="white"/>
<path d="M84.5568 7.46053H88.5981L88.4038 9.47368H88.5204C90.1913 8.17105 92.0954 7.06579 94.2327 7.06579C97.6911 7.06579 98.5071 9.5921 97.458 13.6184L94.8155 23.6053H89.8416L92.3286 14.2105C92.9115 12 92.484 11.3289 91.2405 11.3289C90.1136 11.3289 89.2976 11.8421 88.093 12.7895L85.2563 23.6053H80.3212L84.5568 7.46053Z" fill="white"/>
<path d="M126.019 17.4474L128.662 7.46053H133.635L131.149 16.8553C130.566 19.1053 130.993 19.7368 132.237 19.7368C133.363 19.7368 134.18 19.2632 135.345 18.0789L138.143 7.46053H143.117L138.843 23.6447H134.801L135.034 21.4342H134.918C133.169 23.0132 131.421 24.0395 129.244 24.0395C125.786 24 124.97 21.4737 126.019 17.4474Z" fill="white"/>
<path d="M141.99 21.75L145.021 18.5921C146.187 19.7368 147.353 20.2895 148.596 20.2895C149.917 20.2895 150.617 19.8158 150.811 19.0263C151.083 18.0789 149.645 17.6053 148.208 16.9342C146.498 16.1842 144.633 14.8421 145.332 12.1974C146.148 9.11842 149.14 7.06579 152.832 7.06579C155.358 7.06579 156.873 8.09211 158 9.1579L154.969 12.1579C154.075 11.3684 153.104 10.7763 152.016 10.7763C150.889 10.7763 150.228 11.1711 150.034 11.9605C149.762 12.9079 151.122 13.3026 152.637 13.8947C154.425 14.6447 156.329 15.8289 155.552 18.75C154.775 21.75 151.86 24.0395 147.508 24.0395C145.449 24 143.234 23.0921 141.99 21.75Z" fill="white"/>
<path d="M120.773 12.3947L120.812 12.2763C122.677 11.6053 124.232 9.5921 124.737 7.69737C125.825 3.63158 122.677 2.48684 118.364 2.48684H116.11L115.1 6.35526H117.159C119.258 6.35526 120.074 6.98684 119.685 8.48684C119.297 9.94737 118.092 10.8553 115.994 10.8553H113.934L112.963 14.6053H115.45C117.898 14.6053 118.908 15.2763 118.442 17.0132C117.975 18.8289 116.499 19.6974 114.09 19.6974H111.603L110.592 23.6053H113.429C117.975 23.6053 122.094 21.6711 123.221 17.3684C123.921 14.5658 122.716 12.9474 120.773 12.3947Z" fill="white"/>
<path d="M109.388 23.6053H105.502L111.097 2.48684H114.983L109.388 23.6053Z" fill="#004267"/>
<path d="M104.725 23.6053H102.004L107.6 2.48684H110.32L104.725 23.6053Z" fill="#004267"/>
<path d="M101.227 23.6053H99.4786L105.074 2.48684H106.823L101.227 23.6053Z" fill="#004267"/>
<path d="M98.7014 23.6053H97.7299L103.326 2.48684H104.297L98.7014 23.6053Z" fill="#004267"/>
<path d="M96.9528 23.6053H96.5642L102.16 2.48684H102.548L96.9528 23.6053Z" fill="#004267"/>
</g>
<defs>
<clipPath id="clip0_210_87">
<rect width="158" height="24" fill="white"/>
</clipPath>
</defs>
</svg>
