<svg width="40" height="40" viewBox="0 0 40 40" fill="none" xmlns="http://www.w3.org/2000/svg">
<path d="M22.4268 14.0586C23.0962 13.3891 23.431 12.5523 23.431 11.7155C23.431 10.8787 23.0962 10.0419 22.4268 9.37239C21.0879 8.03348 18.9121 8.03348 17.7406 9.37239C17.0711 10.0419 16.7364 10.8787 16.7364 11.7155C16.7364 12.5523 17.0711 13.3891 17.7406 14.0586C18.41 14.728 19.2469 15.0628 20.0837 15.0628C20.9205 15.0628 21.7573 14.728 22.4268 14.0586Z" fill="#004267"/>
<path d="M31.7992 10.7113C31.2971 4.01674 25.6067 0 20.0837 0C14.3933 0 8.70293 4.1841 8.3682 11.2134L0 7.36402V32.8033L13.8912 39.1632L26.1088 33.6402L40 40V14.5607L31.7992 10.7113ZM20.0837 3.34728C24.1004 3.34728 28.4519 6.35983 28.4519 11.7155C28.4519 17.0711 22.5941 22.9289 20.0837 25.1046C17.0711 22.4268 11.7155 16.7364 11.7155 11.7155C11.7155 6.35983 16.0669 3.34728 20.0837 3.34728ZM3.34728 30.795V12.7197L8.87029 15.2301C9.53975 17.4059 10.8787 19.5816 12.2176 21.59V34.9791L3.34728 30.795ZM15.5649 34.8117V25.4393C17.4059 27.2803 18.7448 28.4519 18.9121 28.6192L19.9163 29.4561L20.9205 28.6192C21.0879 28.4519 22.5941 27.2803 24.2678 25.4393V30.795L15.5649 34.8117ZM36.8201 34.8117L27.9498 30.795V21.59C29.4561 19.4142 30.9623 16.9038 31.4644 14.3933L36.8201 16.7364V34.8117Z" fill="#004267"/>
</svg>
