<svg width="24" height="24" viewBox="0 0 24 24" fill="none" xmlns="http://www.w3.org/2000/svg">
<path d="M13.4561 8.43515C13.8578 8.03347 14.0586 7.53138 14.0586 7.02929C14.0586 6.5272 13.8578 6.0251 13.4561 5.62343C12.6527 4.82008 11.3473 4.82008 10.6444 5.62343C10.2427 6.0251 10.0419 6.5272 10.0419 7.02929C10.0419 7.53138 10.2427 8.03347 10.6444 8.43515C11.0461 8.83682 11.5481 9.03766 12.0502 9.03766C12.5523 9.03766 13.0544 8.83682 13.4561 8.43515Z" fill="#050B0F"/>
<path d="M19.0795 6.42678C18.7782 2.41004 15.364 0 12.0502 0C8.63598 0 5.22176 2.51046 5.02092 6.72803L0 4.41841V19.682L8.33473 23.4979L15.6653 20.1841L24 24V8.7364L19.0795 6.42678ZM12.0502 2.00837C14.4603 2.00837 17.0711 3.8159 17.0711 7.02929C17.0711 10.2427 13.5565 13.7573 12.0502 15.0628C10.2427 13.4561 7.02929 10.0418 7.02929 7.02929C7.02929 3.8159 9.64017 2.00837 12.0502 2.00837ZM2.00837 18.477V7.6318L5.32218 9.13808C5.72385 10.4435 6.5272 11.749 7.33054 12.954V20.9874L2.00837 18.477ZM9.33891 20.887V15.2636C10.4435 16.3682 11.2469 17.0711 11.3473 17.1715L11.9498 17.6736L12.5523 17.1715C12.6527 17.0711 13.5565 16.3682 14.5607 15.2636V18.477L9.33891 20.887ZM22.0921 20.887L16.7699 18.477V12.954C17.6736 11.6485 18.5774 10.1423 18.8787 8.63598L22.0921 10.0418V20.887Z" fill="#050B0F"/>
</svg>
